<?xml version="1.0" standalone="no"?>
<!DOCTYPE svg PUBLIC "-//W3C//DTD SVG 20010904//EN"
 "http://www.w3.org/TR/2001/REC-SVG-20010904/DTD/svg10.dtd">
<svg version="1.0" xmlns="http://www.w3.org/2000/svg"
 width="162.000000pt" height="162.000000pt" viewBox="0 0 162.000000 162.000000"
 preserveAspectRatio="xMidYMid meet">
<metadata>
Created by potrace 1.14, written by Peter Selinger 2001-2017
</metadata>
<g transform="translate(0.000000,162.000000) scale(0.100000,-0.100000)"
fill="#000000" stroke="none">
<path d="M115 1591 c-43 -11 -71 -27 -94 -57 -21 -26 -21 -33 -21 -730 l0
-702 26 -32 c53 -63 16 -60 774 -60 776 0 735 -4 791 73 l29 40 0 674 c0 738
3 704 -60 756 -17 15 -47 31 -68 37 -42 11 -1328 12 -1377 1z m835 -263 c20
-9 48 -29 64 -45 49 -49 60 -81 64 -190 5 -128 -12 -188 -69 -236 l-39 -34 37
-24 c21 -13 49 -44 63 -69 24 -42 25 -54 25 -190 0 -131 -2 -149 -22 -187 -13
-23 -39 -54 -58 -69 -62 -47 -96 -53 -292 -54 l-183 0 0 561 0 561 188 -4
c144 -3 195 -8 222 -20z"/>
<path d="M720 1040 l0 -150 45 0 c66 0 110 21 124 60 15 46 14 144 -4 185 -17
41 -46 55 -116 55 l-49 0 0 -150z"/>
<path d="M720 561 l0 -171 73 0 c79 1 100 11 117 54 13 35 13 160 0 206 -18
66 -30 74 -114 78 l-76 4 0 -171z"/>
</g>
</svg>
